<?xml version="1.0" encoding="UTF-8"?>
<svg width="127.11mm" height="127.2mm" version="1.1" viewBox="0 0 127.11 127.2" xml:space="preserve" xmlns="http://www.w3.org/2000/svg" xmlns:xlink="http://www.w3.org/1999/xlink"><defs><linearGradient id="a" x1="8.6969" x2="255.52" y1="6.2958" y2="254.13" gradientTransform="matrix(.50485 0 0 .50634 28.999 28.818)" gradientUnits="userSpaceOnUse"><stop stopColor="#0f25b8" offset="0"/><stop stopColor="#9b00f0" offset=".87037"/></linearGradient></defs><g transform="translate(-32.713 -32.427)"><path d="m124.75 32.427-17.102 0.07334 0.0515 35.03-40.028 0.01596 0.0022 91.907h17.374l0.01094-34.252 39.769-0.40133zm-91.9 0.02416-0.1353 60.057h17.394v-42.484h55.355l0.0418-17.573zm126.89 0-32.73 0.02507v17.227h15.421v42.927l17.326-0.24462zm-74.86 52.418h22.611v22.723h-22.611zm-34.838 14.527-17.326 0.24508 0.01757 59.991 32.73-0.025v-17.227h-15.421zm92.388 0.12252v42.361h-55.351l-0.04181 17.573h72.651l0.13574-59.934z" fill="url(#a)" fillRule="evenodd" stroke-linejoin="bevel" stroke-width=".31912"/></g></svg>